<?xml version="1.0" standalone="no"?>
<!DOCTYPE svg PUBLIC "-//W3C//DTD SVG 20010904//EN"
 "http://www.w3.org/TR/2001/REC-SVG-20010904/DTD/svg10.dtd">
<svg version="1.0" xmlns="http://www.w3.org/2000/svg"
 width="1758.000000pt" height="1757.000000pt" viewBox="0 0 1758.000000 1757.000000"
 preserveAspectRatio="xMidYMid meet">

<g transform="translate(0.000000,1757.000000) scale(0.100000,-0.100000)"
fill="#000000" stroke="none">
<path d="M5910 14125 c-141 -26 -216 -57 -685 -283 -148 -71 -385 -176 -525
-232 -140 -56 -352 -143 -470 -192 -118 -49 -326 -134 -462 -189 -295 -118
-420 -177 -633 -293 -160 -88 -182 -103 -390 -251 -385 -276 -603 -679 -710
-1310 -40 -234 -45 -381 -40 -1075 6 -670 13 -858 45 -1170 47 -452 49 -513
60 -1945 10 -1420 14 -1732 29 -2805 10 -689 11 -701 75 -837 25 -52 57 -95
116 -156 89 -94 162 -139 290 -179 70 -21 91 -23 305 -22 209 0 259 4 550 42
848 110 1370 152 1903 152 397 0 2092 -34 2737 -56 988 -32 1720 -29 2485 12
204 11 366 13 570 8 309 -7 389 -1 508 41 137 47 286 125 452 236 112 74 188
136 465 373 254 218 404 335 570 446 138 92 240 170 331 253 96 86 202 166
359 269 214 142 476 397 577 564 74 121 123 336 115 499 -30 567 -31 640 -13
973 19 339 18 486 -5 785 -17 224 -4 436 61 1007 51 443 51 447 61 895 7 365
14 492 34 675 13 124 29 311 35 415 15 277 12 872 -5 1145 -11 178 -13 281 -5
425 16 346 22 904 10 996 -27 205 -77 317 -189 429 -91 91 -191 145 -346 188
l-100 27 -330 -3 c-284 -2 -1063 15 -1480 33 -71 3 -411 12 -755 20 -344 9
-841 22 -1105 30 -1463 45 -1967 55 -3210 65 -1339 11 -1191 12 -1285 -5z
m343 -366 c130 -15 239 -21 382 -20 110 0 430 -4 710 -10 455 -9 528 -9 670 6
188 20 426 23 470 5 74 -29 100 -89 71 -165 -23 -59 -56 -91 -311 -303 -121
-100 -274 -230 -340 -288 -66 -59 -178 -150 -250 -204 -71 -54 -222 -175 -335
-269 -221 -185 -283 -224 -426 -263 -124 -34 -521 -36 -1039 -7 -343 20 -507
23 -1155 24 -507 1 -803 6 -900 14 -115 10 -196 10 -391 0 -239 -11 -246 -11
-291 9 -59 26 -82 67 -75 129 7 64 42 96 156 140 53 20 157 71 231 112 74 41
214 110 310 152 454 200 576 256 817 377 142 72 308 151 368 177 61 26 230
108 378 181 274 138 407 197 474 213 69 16 289 12 476 -10z m4457 -99 c294 -6
869 -17 1278 -25 932 -19 1132 -19 1247 -1 171 27 210 29 267 12 101 -29 142
-109 100 -193 -45 -86 -257 -238 -548 -390 -94 -50 -289 -167 -435 -263 -145
-95 -322 -207 -392 -247 -70 -41 -183 -110 -250 -155 -128 -85 -161 -102 -242
-125 -63 -18 -311 -30 -880 -42 -516 -11 -888 -37 -1435 -99 -224 -25 -263
-27 -805 -29 -313 -2 -604 -4 -645 -6 -59 -1 -83 3 -115 19 -55 29 -85 75 -85
133 1 97 69 186 218 284 135 89 289 218 477 397 233 224 592 545 654 587 157
104 403 150 821 152 129 1 476 -4 770 -9z m3506 -345 c59 -17 82 -39 122 -120
41 -83 51 -140 63 -360 13 -220 7 -434 -16 -660 -14 -127 -16 -213 -11 -415
10 -422 -39 -1591 -89 -2115 -8 -82 -28 -283 -44 -445 -17 -162 -35 -371 -41
-465 -6 -93 -18 -262 -27 -375 -10 -128 -16 -295 -14 -445 1 -132 -5 -535 -14
-895 -8 -360 -16 -752 -18 -870 -4 -239 -10 -273 -78 -385 -46 -78 -202 -240
-324 -338 -55 -45 -169 -142 -254 -216 -535 -471 -744 -638 -1011 -809 -353
-225 -539 -255 -685 -108 -78 79 -126 194 -174 415 -86 391 -90 567 -36 1636
9 165 22 383 30 485 60 743 63 793 75 1100 12 310 1 610 -40 1160 -42 551 -57
1080 -42 1410 40 835 133 1184 380 1427 67 65 143 121 284 206 56 35 159 106
228 158 69 53 148 111 175 129 28 19 138 97 245 175 239 173 275 196 470 303
85 46 200 116 255 155 164 116 308 213 345 232 88 46 163 55 246 30z m-3316
-1481 c181 -53 313 -193 386 -407 33 -96 54 -222 54 -321 0 -141 -48 -563 -95
-843 -78 -455 -104 -705 -130 -1243 -8 -168 -20 -406 -26 -530 -8 -166 -8
-444 0 -1060 14 -1095 36 -1486 111 -1970 62 -403 86 -818 57 -985 -19 -104
-57 -226 -97 -305 -44 -86 -99 -131 -235 -194 -152 -70 -200 -82 -410 -106
-376 -43 -660 -48 -1675 -30 -588 10 -686 15 -1145 56 l-290 26 -985 -6 c-929
-5 -1293 -13 -1680 -36 -136 -7 -207 -18 -400 -59 -407 -86 -399 -85 -590 -84
-178 1 -338 19 -442 49 -29 9 -111 41 -183 72 -111 48 -138 65 -185 112 -99
99 -199 327 -257 584 -22 97 -25 143 -30 366 -3 141 0 349 6 465 23 419 25
561 7 700 -9 72 -21 200 -26 285 -6 85 -15 214 -21 285 -5 72 -14 391 -19 710
-8 573 -21 843 -61 1310 -95 1118 -103 1333 -69 1825 17 242 41 387 121 705
79 314 294 498 654 560 324 55 602 48 1429 -35 164 -17 396 -35 515 -40 119
-6 333 -17 476 -25 143 -8 451 -22 685 -30 234 -8 499 -17 590 -21 106 -4 265
0 445 10 154 9 471 25 705 36 1022 48 1525 84 2120 150 195 22 375 41 400 44
81 7 234 -3 290 -20z"/>
<path d="M6814 10925 c-742 -106 -1470 -627 -2058 -1475 -127 -182 -246 -374
-268 -433 -69 -182 84 -358 267 -307 62 17 121 73 177 166 79 134 67 129 138
51 265 -289 698 -528 1155 -637 241 -58 384 -73 675 -74 354 -1 580 31 890
125 400 121 731 308 1037 587 l92 83 14 -28 c8 -15 38 -82 67 -148 69 -159 98
-198 175 -235 82 -40 190 -17 252 53 68 77 71 186 9 332 -221 517 -502 951
-821 1270 -361 361 -753 575 -1210 662 -115 22 -461 26 -591 8z m924 -595
c209 -101 377 -224 562 -410 152 -154 370 -436 370 -480 0 -23 -188 -213 -290
-291 -223 -174 -492 -306 -779 -385 -68 -19 -128 -34 -133 -34 -5 0 23 39 62
87 242 300 328 747 224 1171 -29 118 -80 249 -129 334 -19 32 -35 61 -35 64 0
12 36 -1 148 -56z m-1602 -211 c-44 -132 -57 -217 -63 -395 -4 -128 -2 -195
10 -270 43 -269 146 -497 306 -674 71 -80 81 -77 -89 -35 -371 92 -720 293
-927 533 -99 117 -99 105 -7 219 102 127 372 397 494 495 105 84 290 212 296
205 3 -2 -6 -38 -20 -78z"/>
<path d="M8926 7105 c-49 -17 -103 -68 -127 -120 -26 -57 -24 -141 6 -231 25
-75 116 -263 154 -319 12 -16 21 -38 21 -48 0 -46 -202 -317 -354 -474 -581
-605 -1398 -853 -2167 -658 -312 79 -612 230 -866 436 -212 171 -444 445 -573
675 l-23 40 96 120 c111 137 139 186 145 261 6 70 -18 131 -69 178 -51 45 -80
57 -150 57 -97 0 -143 -33 -270 -192 -163 -205 -361 -380 -533 -472 -152 -81
-203 -150 -194 -268 6 -79 43 -133 118 -173 48 -25 63 -28 117 -24 74 6 171
48 299 132 47 30 88 55 92 55 4 0 34 -42 67 -92 220 -337 523 -635 865 -852
109 -69 333 -180 463 -230 526 -203 1095 -230 1642 -80 626 172 1173 567 1578
1138 l48 68 37 -29 c82 -63 197 -133 244 -149 74 -24 173 -16 227 19 151 100
128 312 -44 399 -125 64 -284 205 -378 336 -66 92 -137 226 -167 317 -30 89
-70 141 -133 171 -58 27 -113 30 -171 9z"/>
</g>
</svg>
